<svg width="168" height="71" viewBox="0 0 168 71" fill="none" xmlns="http://www.w3.org/2000/svg">
<mask id="mask0_331_2" style="mask-type:alpha" maskUnits="userSpaceOnUse" x="0" y="0" width="168" height="71">
<rect width="167.36" height="70.5873" fill="#D9D9D9"/>
</mask>
<g mask="url(#mask0_331_2)">
<path d="M33.036 47.7439C31.9858 47.7385 30.9639 47.4022 30.1158 46.7827C29.2677 46.1632 28.6365 45.2921 28.312 44.2932H23.3133C23.6712 46.6151 24.8483 48.7323 26.6316 50.2617C28.4149 51.7912 30.6867 52.632 33.036 52.632C35.3854 52.632 37.6572 51.7912 39.4405 50.2617C41.2238 48.7323 42.4009 46.6151 42.7588 44.2932H37.7651C37.4406 45.2921 36.8094 46.1632 35.9613 46.7827C35.1131 47.4022 34.0913 47.7385 33.041 47.7439" fill="black"/>
<path d="M90.4188 23.7241L93.7995 36.1185L97.0754 23.7241H101.854L96.5311 41.9861H91.4774L87.8919 30.2809L84.3764 41.9861H79.2229L73.7248 23.7241H78.8783L82.1592 36.1185L85.5349 23.7241H90.4188Z" fill="black"/>
<path d="M108.042 23.7241L112.171 36.2533L116.301 23.7241H121.05L114.598 41.9861H109.58L102.993 23.7241H108.042Z" fill="black"/>
<path d="M63.8672 27.8938C64.849 27.8938 65.8087 28.185 66.6249 28.7304C67.4412 29.2758 68.0774 30.051 68.4531 30.958C68.8288 31.865 68.9271 32.8631 68.7356 33.826C68.5441 34.7888 68.0713 35.6733 67.3771 36.3675C66.6829 37.0617 65.7985 37.5344 64.8356 37.726C63.8727 37.9175 62.8747 37.8192 61.9677 37.4435C61.0607 37.0678 60.2855 36.4316 59.74 35.6153C59.1946 34.799 58.9035 33.8393 58.9035 32.8576C58.9113 31.5435 59.4368 30.2856 60.366 29.3564C61.2952 28.4272 62.5532 27.9017 63.8672 27.8938ZM63.8672 23C61.9176 23 60.0117 23.5781 58.3907 24.6613C56.7696 25.7445 55.5061 27.284 54.76 29.0853C54.0139 30.8865 53.8187 32.8685 54.1991 34.7807C54.5794 36.6929 55.5183 38.4493 56.8969 39.828C58.2755 41.2066 60.0319 42.1454 61.9441 42.5258C63.8563 42.9061 65.8383 42.7109 67.6396 41.9648C69.4408 41.2187 70.9804 39.9552 72.0635 38.3342C73.1467 36.7131 73.7248 34.8072 73.7248 32.8576C73.7248 30.2432 72.6863 27.7359 70.8376 25.8872C68.9889 24.0386 66.4816 23 63.8672 23Z" fill="black"/>
<path d="M52.6963 23.7241H51.1033C49.706 23.7241 48.366 24.2792 47.378 25.2672C46.39 26.2552 45.8349 27.5952 45.8349 28.9925V41.9761H50.4091V30.5905C50.4091 30.2904 50.4683 29.9932 50.5833 29.716C50.6983 29.4388 50.8669 29.187 51.0793 28.975C51.2918 28.763 51.5439 28.595 51.8214 28.4806C52.0989 28.3662 52.3961 28.3077 52.6963 28.3083V23.7241Z" fill="black"/>
<path d="M130.009 38.2708C127.892 38.2708 126.109 36.6229 125.545 34.3757H138.853C138.93 33.88 138.97 33.3792 138.973 32.8776C138.973 27.6641 134.978 23.4395 130.009 23.4395C125.04 23.4395 121.055 27.6442 121.055 32.8576C121.055 38.071 125.05 42.2957 130.014 42.2957C131.804 42.2719 133.546 41.7121 135.015 40.6884C136.483 39.6647 137.612 38.2242 138.254 36.5529H133.405C133.005 37.0771 132.492 37.5039 131.904 37.8014C131.316 38.099 130.668 38.2594 130.009 38.2708ZM130.009 27.4444C132.006 27.4444 133.684 28.8926 134.353 30.94H125.664C126.334 28.8926 128.046 27.4444 130.009 27.4444Z" fill="black"/>
<path d="M33.036 27.8888C34.0179 27.8879 34.978 28.1778 35.7953 28.7221C36.6125 29.2664 37.2501 30.0406 37.6277 30.9469C38.0052 31.8533 38.1058 32.8512 37.9166 33.8147C37.7275 34.7782 37.2571 35.6641 36.5649 36.3604C35.8727 37.0568 34.9898 37.5325 34.0274 37.7274C33.0651 37.9224 32.0666 37.8278 31.158 37.4557C30.2493 37.0836 29.4713 36.4506 28.9221 35.6367C28.3729 34.8228 28.0772 33.8644 28.0723 32.8826C28.0788 31.5676 28.6037 30.3084 29.5331 29.3781C30.4624 28.4479 31.7211 27.9217 33.036 27.9138M33.036 23.025C31.0853 23.025 29.1785 23.6037 27.5569 24.688C25.9352 25.7723 24.6718 27.3133 23.9264 29.116C23.1811 30.9187 22.9873 32.902 23.3697 34.8149C23.7521 36.7277 24.6934 38.4841 26.0745 39.8618C27.4556 41.2394 29.2144 42.1762 31.1283 42.5538C33.0421 42.9313 35.0249 42.7325 36.8257 41.9826C38.6265 41.2327 40.1643 39.9653 41.2445 38.341C42.3246 36.7166 42.8986 34.8083 42.8936 32.8576C42.8936 30.2432 41.855 27.7359 40.0064 25.8872C38.1577 24.0386 35.6504 23 33.036 23" fill="black"/>
<path d="M140.82 23.9238H140.106V25.9213H139.727V23.9238H139.033V23.6192H140.84L140.82 23.9238ZM143.817 25.9213H143.437V23.9987L142.688 25.9063H142.448L141.679 23.9987V25.9063H141.305V23.6192H141.889L142.568 25.357L143.242 23.6192H143.822L143.817 25.9213Z" fill="black"/>
</g>
</svg>
